HIERARCHY
ROOT Hips
{
	OFFSET -0.001795 -0.223333 0.028219
	CHANNELS 6 Xposition Yposition Zposition Zrotation Yrotation Xrotation 
	JOINT LeftUpLeg
	{
		OFFSET 0.069520 -0.091406 -0.006815
		CHANNELS 3 Zrotation Yrotation Xrotation
		JOINT LeftLeg
		{
			OFFSET 0.034277 -0.375199 -0.004496
			CHANNELS 3 Zrotation Yrotation Xrotation
			JOINT LeftFoot
			{
				OFFSET -0.013596 -0.397961 -0.043693
				CHANNELS 3 Zrotation Yrotation Xrotation
				JOINT LeftToe
				{
					OFFSET 0.026358 -0.055791 0.119288
					CHANNELS 3 Zrotation Yrotation Xrotation
					End Site
					{
						OFFSET 0.000000 0.000000 0.000000
					}
				}
			}
		}
	}
	JOINT RightUpLeg
	{
		OFFSET -0.067670 -0.090522 -0.004320
		CHANNELS 3 Zrotation Yrotation Xrotation
		JOINT RightLeg
		{
			OFFSET -0.038290 -0.382569 -0.008850
			CHANNELS 3 Zrotation Yrotation Xrotation
			JOINT RightFoot
			{
				OFFSET 0.015774 -0.398415 -0.042312
				CHANNELS 3 Zrotation Yrotation Xrotation
				JOINT RightToe
				{
					OFFSET -0.025372 -0.048144 0.123348
					CHANNELS 3 Zrotation Yrotation Xrotation
					End Site
					{
						OFFSET 0.000000 0.000000 0.000000
					}
				}
			}
		}
	}
	JOINT Spine
	{
		OFFSET -0.002533 0.108963 -0.026696
		CHANNELS 3 Zrotation Yrotation Xrotation
		JOINT Spine1
		{
			OFFSET 0.005487 0.135180 0.001092
			CHANNELS 3 Zrotation Yrotation Xrotation
			JOINT Spine2
			{
				OFFSET 0.001457 0.052922 0.025425
				CHANNELS 3 Zrotation Yrotation Xrotation
				JOINT Neck
				{
					OFFSET -0.002778 0.213870 -0.042857
					CHANNELS 3 Zrotation Yrotation Xrotation
					JOINT Head
					{
						OFFSET 0.005152 0.064970 0.051349
						CHANNELS 3 Zrotation Yrotation Xrotation
						End Site
						{
							OFFSET 0.000000 0.000000 0.000000
						}
					}
				}
				JOINT LeftShoulder
				{
					OFFSET 0.078845 0.121749 -0.034090
					CHANNELS 3 Zrotation Yrotation Xrotation
					JOINT LeftArm
					{
						OFFSET 0.090977 0.030469 -0.008868
						CHANNELS 3 Zrotation Yrotation Xrotation
						JOINT LeftForeArm
						{
							OFFSET 0.259612 -0.012772 -0.027456
							CHANNELS 3 Zrotation Yrotation Xrotation
							JOINT LeftHand
							{
								OFFSET 0.249234 0.008986 -0.001171
								CHANNELS 3 Zrotation Yrotation Xrotation
								End Site
								{
									OFFSET 0.000000 0.000000 0.000000
								}
							}
						}
					}
				}
				JOINT RightShoulder
				{
					OFFSET -0.081759 0.118833 -0.038615
					CHANNELS 3 Zrotation Yrotation Xrotation
					JOINT RightArm
					{
						OFFSET -0.096012 0.032551 -0.009143
						CHANNELS 3 Zrotation Yrotation Xrotation
						JOINT RightForeArm
						{
							OFFSET -0.253742 -0.013329 -0.021401
							CHANNELS 3 Zrotation Yrotation Xrotation
							JOINT RightHand
							{
								OFFSET -0.255298 0.007772 -0.005559
								CHANNELS 3 Zrotation Yrotation Xrotation
								End Site
								{
									OFFSET 0.000000 0.000000 0.000000
								}
							}
						}
					}
				}
			}
		}
	}
}
MOTION
Frames: 9
Frame Time: 0.050000
-0.000401 0.951718 0.001281 -0.881919 -9.087884 0.698386 1.816186 0.027989 0.248600 1.750768 -0.129246 -1.904922 1.760657 6.463819 12.000290 0.000000 0.000000 0.000000 0.621865 0.238688 -2.634192 -3.198059 0.363978 1.036811 4.578558 3.114970 10.995140 0.000000 0.000000 0.000000 3.776237 0.124459 -2.010694 -0.325671 0.173821 1.552248 -4.065106 8.234697 3.333533 4.009768 -2.043819 -7.146846 0.000000 0.000000 0.000000 7.780941 -19.011309 5.916594 -3.276432 -43.312099 -1.941774 57.361880 -26.266799 -14.103034 0.000000 0.000000 0.000000 12.978971 10.554510 4.684100 61.442944 5.737067 -2.805660 11.162471 19.724076 2.473968 0.000000 0.000000 0.000000 
-0.000331 0.951480 0.001182 -0.833522 -9.101849 0.584511 1.807239 0.032416 0.294472 1.666196 -0.126053 -1.785936 1.777139 6.472503 11.906856 0.000000 0.000000 0.000000 0.639044 0.219890 -2.451799 -3.332568 0.368401 0.906356 4.570689 3.142964 10.917875 0.000000 0.000000 0.000000 3.650774 0.114436 -1.887292 -0.285576 0.151485 1.328639 -4.054392 8.349785 3.553363 4.004838 -2.049558 -7.061919 0.000000 0.000000 0.000000 8.555583 -19.289532 5.947696 -3.492564 -43.197827 -1.897801 57.019803 -26.303793 -14.049875 0.000000 0.000000 0.000000 12.634912 10.754759 4.776956 62.011758 5.764180 -2.812843 10.707551 19.759895 2.409309 0.000000 0.000000 0.000000 
-0.000236 0.951600 0.001050 -0.792197 -9.165213 0.422414 1.764956 0.039057 0.362698 1.644867 -0.132659 -1.605501 1.803467 6.512745 11.916853 0.000000 0.000000 0.000000 0.627442 0.210620 -2.356647 -3.404925 0.383475 1.010934 4.598944 3.192313 10.913481 0.000000 0.000000 0.000000 3.542660 0.105858 -1.768583 -0.204988 0.110349 1.179536 -4.120276 8.402191 3.656109 3.983993 -2.046273 -6.980653 0.000000 0.000000 0.000000 8.909410 -19.630699 6.012071 -3.501927 -43.377996 -1.916416 56.014661 -26.504007 -13.851497 0.000000 0.000000 0.000000 12.480076 11.014072 4.895678 62.129793 5.828066 -2.787982 10.492707 19.797046 2.379338 0.000000 0.000000 0.000000 
-0.000128 0.951828 0.000916 -0.750976 -9.144379 0.334921 1.753741 0.052601 0.522172 1.580036 -0.118460 -1.755967 1.761506 6.466406 12.019839 0.000000 0.000000 0.000000 0.627113 0.211874 -2.366150 -3.489927 0.404627 1.173051 4.590180 3.163625 10.934336 0.000000 0.000000 0.000000 3.386067 0.090606 -1.579644 -0.128661 0.071397 1.037300 -4.122500 8.485498 3.625369 4.040525 -2.047475 -7.204037 0.000000 0.000000 0.000000 9.616509 -20.033611 6.074014 -3.259109 -43.710063 -2.029275 55.169071 -26.344031 -13.531215 0.000000 0.000000 0.000000 12.204612 11.106131 4.933915 62.365619 5.799256 -2.792740 10.377365 19.909017 2.377759 0.000000 0.000000 0.000000 
-0.000015 0.951713 0.000783 -0.745196 -9.053259 0.314191 1.744024 0.054579 0.549380 1.587788 -0.116689 -1.805443 1.719524 6.399609 11.981006 0.000000 0.000000 0.000000 0.671989 0.210578 -2.358405 -3.583480 0.417230 1.202121 4.533318 3.092216 10.885763 0.000000 0.000000 0.000000 3.276924 0.089097 -1.571621 -0.066707 0.039410 0.864595 -4.018114 8.307556 3.930988 3.894890 -1.918664 -7.449858 0.000000 0.000000 0.000000 10.594468 -20.249434 6.049975 -2.739219 -44.042995 -2.216373 54.115478 -25.661179 -12.839732 0.000000 0.000000 0.000000 11.517143 11.418010 4.999752 62.575118 6.065358 -2.664482 10.549880 20.004925 2.415890 0.000000 0.000000 0.000000 
0.000079 0.951643 0.000605 -0.775572 -9.001588 0.215522 1.798726 0.047177 0.453855 1.547778 -0.127945 -1.468775 1.716425 6.379234 11.868119 0.000000 0.000000 0.000000 0.762327 0.193295 -2.202354 -3.689920 0.422319 1.115273 4.514161 3.060867 10.884441 0.000000 0.000000 0.000000 3.155427 0.085420 -1.523424 -0.021958 0.016675 0.788225 -3.937901 8.169002 4.102518 3.920185 -1.939710 -7.497519 0.000000 0.000000 0.000000 11.481661 -20.507523 6.037107 -2.225178 -44.393021 -2.402614 53.250956 -24.686186 -12.088671 0.000000 0.000000 0.000000 11.021269 11.724838 5.082234 62.771933 6.110933 -2.651484 10.770536 20.222836 2.480323 0.000000 0.000000 0.000000 
0.000184 0.951662 0.000466 -0.683359 -9.040171 0.153494 1.704050 0.053510 0.527761 1.523396 -0.123212 -1.516182 1.722686 6.394554 11.914076 0.000000 0.000000 0.000000 0.659531 0.190539 -2.156214 -3.699436 0.422036 1.100627 4.528359 3.094269 10.866679 0.000000 0.000000 0.000000 3.040038 0.081434 -1.474949 -0.110273 0.059637 0.792484 -3.834933 8.025427 4.121791 3.429757 -1.628244 -7.299314 0.000000 0.000000 0.000000 11.983520 -20.697823 6.031134 -1.694432 -44.623133 -2.570158 52.804569 -23.799697 -11.501164 0.000000 0.000000 0.000000 10.822330 11.954926 5.141567 62.775611 5.834842 -2.806542 10.650466 20.715472 2.526390 0.000000 0.000000 0.000000 
0.000286 0.951600 0.000328 -0.563493 -8.748205 0.145046 1.639382 0.059490 0.614036 1.435750 -0.100448 -1.782543 1.554238 6.155636 11.949058 0.000000 0.000000 0.000000 0.526049 0.199795 -2.215626 -3.676047 0.431685 1.237748 4.364148 2.864395 10.773502 0.000000 0.000000 0.000000 2.914350 0.081291 -1.492543 -0.042328 0.025234 0.756031 -3.890688 7.758173 4.265416 2.684703 -1.074626 -7.509705 0.000000 0.000000 0.000000 12.297238 -20.790083 6.016355 -1.093466 -44.700193 -2.760361 52.149029 -23.181679 -11.011005 0.000000 0.000000 0.000000 10.399899 12.080623 5.147298 63.263859 5.440801 -3.036589 10.430079 21.407453 2.584729 0.000000 0.000000 0.000000 
0.000346 0.951452 0.000209 -0.519942 -8.398464 0.123030 1.562043 0.053287 0.555576 1.525631 -0.110557 -1.751040 1.396865 5.915248 11.865454 0.000000 0.000000 0.000000 0.477636 0.210761 -2.306918 -3.644283 0.450295 1.499693 4.163344 2.586751 10.649321 0.000000 0.000000 0.000000 2.909924 0.080664 -1.486318 -0.023420 0.014898 0.766197 -3.949797 7.511588 4.429641 2.303620 -0.758013 -7.904514 0.000000 0.000000 0.000000 12.159986 -20.830095 6.027373 -0.342010 -44.810692 -3.006228 51.361355 -22.361764 -10.415146 0.000000 0.000000 0.000000 10.494302 11.971992 5.099253 63.268388 5.398635 -3.083688 10.635661 21.664515 2.659795 0.000000 0.000000 0.000000 
